<svg width="30" height="30" viewBox="0 0 30 30" fill="none" xmlns="http://www.w3.org/2000/svg">
<circle cx="15" cy="15" r="15" fill="#C7DE2E"/>
<path d="M5 15C5 12.3478 6.05357 9.8043 7.92893 7.92893C9.8043 6.05357 12.3478 5 15 5C17.6522 5 20.1957 6.05357 22.0711 7.92893C23.9464 9.8043 25 12.3478 25 15C25 17.6522 23.9464 20.1957 22.0711 22.0711C20.1957 23.9464 17.6522 25 15 25C12.3478 25 9.8043 23.9464 7.92893 22.0711C6.05357 20.1957 5 17.6522 5 15ZM15 6.42898H14.9286C15.06 6.6862 15.2029 6.99343 15.3315 7.33495C15.6788 8.25807 15.9946 9.60989 15.433 10.8045C14.9157 11.9048 14.0254 12.1906 13.361 12.3621L13.2638 12.3864C12.6179 12.5536 12.3492 12.6222 12.1563 12.9151C11.9763 13.1895 12.0077 13.5339 12.2135 14.2012L12.2592 14.3512C12.3407 14.6113 12.4378 14.92 12.4879 15.2115C12.5522 15.5744 12.5693 16.0289 12.3407 16.469C12.1459 16.8623 11.8358 17.1868 11.4518 17.3993C11.154 17.5502 10.8335 17.6515 10.503 17.6993L10.4044 17.7165C9.89283 17.8065 9.63275 17.8522 9.38411 18.1195C9.18834 18.3295 9.06688 18.6939 8.99543 19.2226C8.96685 19.4384 8.9497 19.6528 8.93112 19.8742L8.92255 19.9914C8.90254 20.2344 8.87682 20.5116 8.82252 20.7488L8.78822 20.906C9.5879 21.7495 10.5512 22.421 11.6193 22.8794C12.6873 23.3379 13.8377 23.5737 15 23.5724C16.5356 23.5747 18.0433 23.1625 19.3641 22.3792C19.233 22.2506 19.1099 22.1142 18.9954 21.9706C18.6568 21.5447 18.2181 20.8174 18.3695 19.9614C18.4424 19.5513 18.6625 19.2055 18.8783 18.9383C19.0983 18.6668 19.3641 18.4153 19.597 18.1995C19.6498 18.1513 19.7027 18.1032 19.7556 18.0552C19.9343 17.8908 20.0886 17.7508 20.2186 17.6136C20.2832 17.5485 20.3429 17.4788 20.3973 17.405C20.4149 17.3816 20.4298 17.3561 20.4416 17.3292C20.513 17.0906 20.4273 16.9148 20.3215 16.8334C20.2429 16.7734 20.0429 16.6833 19.6842 16.9091C19.565 16.9865 19.4445 17.0617 19.3227 17.1349C19.2009 17.2103 19.0684 17.2667 18.9297 17.3021C18.7416 17.3471 18.5434 17.319 18.3753 17.2235C18.2071 17.128 18.0814 16.9722 18.0237 16.7877C17.9953 16.6951 17.9818 16.5986 17.9837 16.5019C17.9839 16.4114 17.9915 16.321 18.0066 16.2318C18.0423 15.9317 18.0966 15.4887 17.9251 14.8285C17.7865 14.2984 17.585 13.894 17.3793 13.4824C17.281 13.2885 17.1876 13.0922 17.0992 12.8937C16.9734 12.6079 16.8362 12.2364 16.8605 11.842C16.8891 11.3847 17.1192 11.0131 17.4921 10.7331C17.9451 10.393 18.5153 9.61418 19.0083 8.82681C19.2441 8.45099 19.447 8.09803 19.5899 7.84081L19.6227 7.78079C18.2437 6.89554 16.6388 6.42623 15 6.42898ZM20.7688 8.65962C20.623 8.91683 20.4358 9.24121 20.2201 9.5856C19.7356 10.3572 19.0426 11.3575 18.3495 11.8762C18.3263 11.8927 18.3052 11.9119 18.2867 11.9334C18.2867 11.972 18.3009 12.0777 18.4067 12.3192C18.4538 12.4235 18.5181 12.555 18.5925 12.7051C18.8168 13.1538 19.1298 13.7839 19.3069 14.4684C19.4027 14.8342 19.4484 15.16 19.4641 15.4416C20.0872 15.2358 20.7131 15.3301 21.1961 15.7031C21.7934 16.1646 22.0434 16.9677 21.8105 17.7436C21.7019 18.098 21.4533 18.391 21.2532 18.601C21.0846 18.7768 20.8817 18.9611 20.6988 19.1298L20.5644 19.2512C20.3598 19.4327 20.1683 19.6285 19.9914 19.8371C19.84 20.0229 19.7885 20.1443 19.7771 20.2115C19.7342 20.4473 19.85 20.7502 20.1143 21.0832C20.2454 21.2464 20.3924 21.3962 20.553 21.5304C21.5002 20.7265 22.2609 19.7258 22.7821 18.598C23.3033 17.4702 23.5725 16.2424 23.571 15C23.571 12.4879 22.4907 10.2272 20.7688 8.65962ZM6.42898 15C6.42641 16.49 6.81414 17.9547 7.55359 19.2484L7.57931 19.034C7.65647 18.4553 7.81938 17.7008 8.33953 17.1449C8.93112 16.5104 9.65847 16.3904 10.1229 16.3147C10.1686 16.3075 10.2129 16.3004 10.2529 16.2918C10.5016 16.2489 10.6516 16.2089 10.7674 16.1446C10.9024 16.0673 11.0094 15.9493 11.0732 15.8074C11.0932 15.7688 11.1203 15.6788 11.0817 15.4573C11.0489 15.2672 10.986 15.0686 10.906 14.8128C10.8863 14.749 10.8668 14.6852 10.8474 14.6213C10.6616 14.014 10.3701 13.028 10.9617 12.1292C11.4776 11.3475 12.3049 11.1489 12.8394 11.0189L13.0023 10.9789C13.571 10.8317 13.9068 10.6931 14.1398 10.1972C14.4427 9.5513 14.3112 8.67962 13.994 7.83938C13.8278 7.40241 13.6222 6.9815 13.3795 6.58188C11.4234 6.95906 9.65973 8.00562 8.39136 9.54179C7.12299 11.078 6.42914 13.0079 6.42898 15Z" fill="#1F1F1F"/>
</svg>
