<svg width="51" height="51" viewBox="0 0 51 51" fill="none" xmlns="http://www.w3.org/2000/svg">
<path fill-rule="evenodd" clip-rule="evenodd" d="M31.6862 28.1798C31.3493 28.0121 29.6978 27.2044 29.3903 27.0919C29.0828 26.9805 28.859 26.9254 28.634 27.2606C28.4102 27.5936 27.767 28.3474 27.5715 28.5701C27.3748 28.794 27.1792 28.821 26.8435 28.6545C26.5077 28.4858 25.4248 28.1336 24.1418 26.9951C23.1436 26.1086 22.4688 25.014 22.2732 24.6788C22.0776 24.3446 22.2517 24.1635 22.4202 23.997C22.5716 23.8474 22.7559 23.6066 22.9243 23.412C23.0928 23.2163 23.1481 23.0768 23.2601 22.8529C23.3731 22.6302 23.3166 22.4355 23.2318 22.2679C23.1481 22.1003 22.4767 20.4544 22.1963 19.785C21.9239 19.1337 21.647 19.2225 21.4412 19.2113C21.2445 19.2023 21.0207 19.2 20.7969 19.2C20.5731 19.2 20.2091 19.2833 19.9016 19.6185C19.593 19.9527 18.726 20.7615 18.726 22.4074C18.726 24.0521 19.9287 25.6418 20.0972 25.8656C20.2656 26.0884 22.4654 29.4656 25.8351 30.9135C26.6377 31.2578 27.2628 31.4636 27.7501 31.6166C28.5549 31.872 29.2874 31.836 29.8662 31.7494C30.5105 31.6538 31.8535 30.9405 32.1338 30.1598C32.413 29.379 32.413 28.7096 32.3294 28.5701C32.2457 28.4306 32.0219 28.3474 31.685 28.1798H31.6862ZM25.5571 36.5081H25.5525C23.551 36.5085 21.5863 35.9731 19.8643 34.9579L19.4573 34.7171L15.2273 35.8219L16.3566 31.7179L16.091 31.2971C14.972 29.5246 14.3798 27.473 14.3829 25.3796C14.3852 19.2484 19.3974 14.2602 25.5616 14.2602C28.5459 14.2602 31.3516 15.4189 33.4609 17.5204C34.5013 18.5516 35.326 19.7778 35.8871 21.1282C36.4483 22.4785 36.7347 23.9263 36.7301 25.3875C36.7278 31.5188 31.7156 36.5081 25.5571 36.5081ZM35.0661 15.924C33.8206 14.6763 32.3386 13.687 30.7062 13.0134C29.0737 12.3399 27.3231 11.9954 25.5559 12C18.1472 12 12.1153 18.0019 12.113 25.3785C12.1096 27.7262 12.7284 30.0331 13.907 32.0666L12 39L19.1261 37.1393C21.0974 38.2081 23.3065 38.7683 25.5514 38.7683H25.5571C32.9658 38.7683 38.9977 32.7664 38.9999 25.3886C39.0054 23.6306 38.6606 21.8889 37.9853 20.2643C37.3101 18.6397 36.3179 17.1645 35.0661 15.924Z" fill="white"/>
</svg>
