<svg width="31" height="28" viewBox="0 0 31 28" fill="none" xmlns="http://www.w3.org/2000/svg">
<path d="M27.7638 3.2974C27.0552 2.56906 26.2139 1.99128 25.2879 1.59709C24.3619 1.20289 23.3694 1 22.367 1C21.3647 1 20.3722 1.20289 19.4462 1.59709C18.5202 1.99128 17.6788 2.56906 16.9702 3.2974L15.4996 4.80826L14.029 3.2974C12.5977 1.82689 10.6564 1.00076 8.63223 1.00076C6.60804 1.00076 4.66675 1.82689 3.23543 3.2974C1.80411 4.76791 1 6.76235 1 8.84197C1 10.9216 1.80411 12.916 3.23543 14.3865L4.70602 15.8974L15.4996 26.9865L26.2932 15.8974L27.7638 14.3865C28.4728 13.6585 29.0351 12.7942 29.4188 11.8428C29.8025 10.8915 30 9.87176 30 8.84197C30 7.81218 29.8025 6.79248 29.4188 5.84112C29.0351 4.88977 28.4728 4.0254 27.7638 3.2974Z" stroke="white" stroke-width="2" stroke-linecap="round" stroke-linejoin="round"/>
</svg>
