<svg width="51" height="51" viewBox="0 0 51 51" fill="none" xmlns="http://www.w3.org/2000/svg">
<path d="M36.3145 12.5205L36.3145 12.5205C36.5599 12.5654 36.7953 12.6835 36.9943 12.869C37.1909 13.0583 37.3422 13.3078 37.4264 13.5938C37.5108 13.881 37.523 14.1895 37.461 14.4845L37.4607 14.4859L32.9471 36.254C32.8889 36.5343 32.7662 36.7884 32.5957 36.9925L32.5957 36.9926C32.4254 37.1964 32.2147 37.3421 31.9874 37.4215L31.9793 37.4243L31.9712 37.4275C31.8392 37.4787 31.7012 37.5029 31.5634 37.4997L31.5634 37.4997L31.5548 37.4996C31.2264 37.4978 30.9009 37.3649 30.6404 37.1112L30.6401 37.1108L25.9224 32.5239L25.5517 32.1634L25.2039 32.546L22.0827 35.9797L22.0827 35.9797L22.08 35.9828C21.9468 36.1317 21.7909 36.2467 21.6228 36.3241C21.455 36.4011 21.2772 36.4396 21.0991 36.439C20.9189 36.4378 20.7393 36.3993 20.5692 36.324C20.315 36.2078 20.0897 36.0071 19.9275 35.7393L19.9274 35.7393C19.7647 35.4706 19.6754 35.1498 19.6756 34.8181V34.8178V27.0491V26.6468L19.2825 26.5607L13.6533 25.328C13.6531 25.3279 13.6529 25.3279 13.6527 25.3278C13.3625 25.2636 13.0896 25.0952 12.8797 24.8362C12.6798 24.5896 12.5496 24.2754 12.5126 23.9357L13.8224 24.2233L19.8006 25.5357L20.0332 25.5868L20.2194 25.4384L30.9993 16.8477L30.4885 15.998L13.7305 23.2763L12.5024 23.8097C12.4851 23.4727 12.5624 23.14 12.7205 22.8583L12.7205 22.8583C12.8887 22.5584 13.1357 22.338 13.4153 22.2204L13.4153 22.2204L13.4204 22.2182L35.5803 12.6068L35.5805 12.6067C35.8157 12.5045 36.0687 12.4756 36.3145 12.5205ZM20.5963 34.8178V36.115L21.4669 35.1535L24.4919 31.8127L24.8157 31.4551L24.47 31.1187L21.4449 28.1756L20.5963 27.3499V28.534V34.8178ZM31.2156 36.237L31.8684 36.8714L32.0536 35.9801L36.4112 15.0073L36.693 13.6511L35.6099 14.5146L21.3608 25.876L20.9169 26.23L21.324 26.6256L31.2156 36.237Z" fill="white" stroke="white"/>
</svg>
